<svg width="41" height="40" viewBox="0 0 41 40" fill="none" xmlns="http://www.w3.org/2000/svg">
<g clip-path="url(#clip0_15_1210)">
<path d="M40.6562 20C40.6562 8.9543 31.7019 0 20.6562 0C9.61055 0 0.65625 8.9543 0.65625 20C0.65625 31.0457 9.61055 40 20.6562 40C31.7019 40 40.6562 31.0457 40.6562 20Z" fill="white" fill-opacity="0.12"/>
<path d="M26.1558 10H23.1558C21.8297 10 20.558 10.5268 19.6203 11.4645C18.6826 12.4022 18.1558 13.6739 18.1558 15V18H15.1558V22H18.1558V30H22.1558V22H25.1558L26.1558 18H22.1558V15C22.1558 14.7348 22.2612 14.4804 22.4487 14.2929C22.6363 14.1054 22.8906 14 23.1558 14H26.1558V10Z" fill="white"/>
</g>
<defs>
<clipPath id="clip0_15_1210">
<rect width="40" height="40" fill="white" transform="translate(0.65625)"/>
</clipPath>
</defs>
</svg>
