<svg width="41" height="40" viewBox="0 0 41 40" fill="none" xmlns="http://www.w3.org/2000/svg">
<g clip-path="url(#clip0_15_1205)">
<path d="M40.3281 20C40.3281 8.9543 31.3738 0 20.3281 0C9.28243 0 0.328125 8.9543 0.328125 20C0.328125 31.0457 9.28243 40 20.3281 40C31.3738 40 40.3281 31.0457 40.3281 20Z" fill="white" fill-opacity="0.12"/>
<path d="M24.3286 16.5C25.92 16.5 27.4461 17.1321 28.5713 18.2574C29.6965 19.3826 30.3287 20.9087 30.3287 22.5V29.5001H26.3287V22.5C26.3287 21.9696 26.1179 21.4609 25.7429 21.0858C25.3678 20.7107 24.8591 20.5 24.3286 20.5C23.7982 20.5 23.2895 20.7107 22.9144 21.0858C22.5393 21.4609 22.3286 21.9696 22.3286 22.5V29.5001H18.3286V22.5C18.3286 20.9087 18.9607 19.3826 20.086 18.2574C21.2112 17.1321 22.7373 16.5 24.3286 16.5Z" fill="white"/>
<path d="M14.3281 17.5H10.3281V29.5001H14.3281V17.5Z" fill="white"/>
<path d="M12.3281 14.5005C13.4327 14.5005 14.3281 13.6051 14.3281 12.5005C14.3281 11.3959 13.4327 10.5005 12.3281 10.5005C11.2235 10.5005 10.3281 11.3959 10.3281 12.5005C10.3281 13.6051 11.2235 14.5005 12.3281 14.5005Z" fill="white"/>
</g>
<defs>
<clipPath id="clip0_15_1205">
<rect width="40" height="40" fill="white" transform="translate(0.328125)"/>
</clipPath>
</defs>
</svg>
