<svg width="41" height="40" viewBox="0 0 41 40" fill="none" xmlns="http://www.w3.org/2000/svg">
<g clip-path="url(#clip0_15_1213)">
<path d="M40.9844 20C40.9844 8.9543 32.0301 0 20.9844 0C9.93868 0 0.984375 8.9543 0.984375 20C0.984375 31.0457 9.93868 40 20.9844 40C32.0301 40 40.9844 31.0457 40.9844 20Z" fill="white" fill-opacity="0.12"/>
<path d="M17.1527 20C17.1527 17.883 18.8684 16.1664 20.9854 16.1664C23.1024 16.1664 24.819 17.883 24.819 20C24.819 22.117 23.1024 23.8336 20.9854 23.8336C18.8684 23.8336 17.1527 22.117 17.1527 20ZM15.0802 20C15.0802 23.2614 17.7239 25.9051 20.9854 25.9051C24.2468 25.9051 26.8905 23.2614 26.8905 20C26.8905 16.7386 24.2468 14.0949 20.9854 14.0949C17.7239 14.0949 15.0802 16.7386 15.0802 20ZM25.7442 13.8608C25.7442 14.6225 26.362 15.2412 27.1246 15.2412C27.8863 15.2412 28.505 14.6225 28.505 13.8608C28.505 13.0991 27.8872 12.4813 27.1246 12.4813C26.362 12.4813 25.7442 13.0991 25.7442 13.8608ZM16.3389 29.3607C15.2177 29.3096 14.6084 29.1229 14.2033 28.965C13.6664 28.756 13.2837 28.507 12.8806 28.1048C12.4783 27.7026 12.2285 27.3199 12.0204 26.783C11.8625 26.378 11.6758 25.7686 11.6247 24.6474C11.5689 23.4351 11.5578 23.071 11.5578 20C11.5578 16.929 11.5699 16.5658 11.6247 15.3526C11.6758 14.2314 11.8634 13.623 12.0204 13.217C12.2294 12.6801 12.4783 12.2974 12.8806 11.8943C13.2828 11.492 13.6655 11.2422 14.2033 11.0341C14.6084 10.8762 15.2177 10.6895 16.3389 10.6384C17.5512 10.5826 17.9153 10.5715 20.9854 10.5715C24.0564 10.5715 24.4196 10.5836 25.6328 10.6384C26.754 10.6895 27.3624 10.8771 27.7683 11.0341C28.3052 11.2422 28.688 11.492 29.0911 11.8943C29.4933 12.2965 29.7423 12.6801 29.9513 13.217C30.1092 13.6221 30.2959 14.2314 30.347 15.3526C30.4027 16.5658 30.4139 16.929 30.4139 20C30.4139 23.0701 30.4027 23.4342 30.347 24.6474C30.2959 25.7686 30.1083 26.378 29.9513 26.783C29.7423 27.3199 29.4933 27.7026 29.0911 28.1048C28.6889 28.507 28.3052 28.756 27.7683 28.965C27.3633 29.1229 26.754 29.3096 25.6328 29.3607C24.4205 29.4164 24.0564 29.4276 20.9854 29.4276C17.9153 29.4276 17.5512 29.4164 16.3389 29.3607ZM16.2442 8.56967C15.0199 8.6254 14.1838 8.81955 13.4528 9.1038C12.6966 9.39733 12.0557 9.7912 11.4157 10.4303C10.7765 11.0694 10.3827 11.7103 10.0891 12.4674C9.80489 13.1985 9.61075 14.0345 9.55502 15.2588C9.49835 16.485 9.48535 16.877 9.48535 20C9.48535 23.123 9.49835 23.515 9.55502 24.7412C9.61075 25.9655 9.80489 26.8015 10.0891 27.5326C10.3827 28.2887 10.7756 28.9306 11.4157 29.5697C12.0548 30.2088 12.6957 30.6017 13.4528 30.8962C14.1848 31.1805 15.0199 31.3746 16.2442 31.4303C17.4713 31.4861 17.8624 31.5 20.9854 31.5C24.1093 31.5 24.5004 31.487 25.7266 31.4303C26.9509 31.3746 27.7869 31.1805 28.518 30.8962C29.2741 30.6017 29.9151 30.2088 30.5551 29.5697C31.1942 28.9306 31.5871 28.2887 31.8816 27.5326C32.1658 26.8015 32.3609 25.9655 32.4157 24.7412C32.4714 23.5141 32.4844 23.123 32.4844 20C32.4844 16.877 32.4714 16.485 32.4157 15.2588C32.36 14.0345 32.1658 13.1985 31.8816 12.4674C31.5871 11.7113 31.1942 11.0703 30.5551 10.4303C29.916 9.7912 29.2741 9.39733 28.5189 9.1038C27.7869 8.81955 26.9509 8.62448 25.7275 8.56967C24.5013 8.51393 24.1093 8.5 20.9863 8.5C17.8624 8.5 17.4713 8.513 16.2442 8.56967Z" fill="white"/>
</g>
<defs>
<clipPath id="clip0_15_1213">
<rect width="40" height="40" fill="white" transform="translate(0.984375)"/>
</clipPath>
</defs>
</svg>
