<svg width="18" height="19" viewBox="0 0 18 19" fill="none" xmlns="http://www.w3.org/2000/svg">
<g clip-path="url(#clip0_15_1189)">
<path d="M16.6992 10.0122C16.6992 5.76328 13.2548 2.31885 9.00585 2.31885C4.75693 2.31885 1.3125 5.76328 1.3125 10.0122C1.3125 14.2611 4.75693 17.7055 9.00585 17.7055C13.2548 17.7055 16.6992 14.2611 16.6992 10.0122Z" stroke="white" stroke-width="1.125"/>
<path d="M12.0171 5.33597C12.0171 3.66966 10.6663 2.31885 9 2.31885C7.33369 2.31885 5.98288 3.66966 5.98288 5.33597V14.6884C5.98288 16.3547 7.33369 17.7055 9 17.7055C10.6663 17.7055 12.0171 16.3547 12.0171 14.6884V5.33597Z" stroke="white" stroke-width="1.125"/>
<path d="M1.64703 9.95312H16.6992" stroke="white" stroke-width="1.125"/>
</g>
<defs>
<clipPath id="clip0_15_1189">
<rect width="18" height="18" fill="white" transform="translate(0 0.953125)"/>
</clipPath>
</defs>
</svg>
