<svg width="96" height="38" viewBox="0 0 96 38" fill="none" xmlns="http://www.w3.org/2000/svg">
<g clip-path="url(#clip0_15_1021)" filter="url(#filter0_d_15_1021)">
<mask id="mask0_15_1021" style="mask-type:luminance" maskUnits="userSpaceOnUse" x="4" y="0" width="88" height="30">
<path d="M91.5511 0H4.44922V30H91.5511V0Z" fill="white"/>
</mask>
<g mask="url(#mask0_15_1021)">
<path d="M83.1005 12.226C84.1483 12.226 84.9978 11.3765 84.9978 10.3286C84.9978 9.28076 84.1483 8.43127 83.1005 8.43127C82.0526 8.43127 81.2031 9.28076 81.2031 10.3286C81.2031 11.3765 82.0526 12.226 83.1005 12.226Z" fill="#1B1B1B" fill-opacity="0.55"/>
<path d="M56.0007 18.419C56.9314 18.419 57.4684 17.7209 57.4326 17.0407C57.4147 16.6827 57.3789 16.45 57.3431 16.271C56.7703 13.8009 54.7656 11.9751 52.3849 11.9751C49.5567 11.9751 47.2656 14.5348 47.2656 17.6851C47.2656 20.8355 49.5567 23.3951 52.3849 23.3951C54.157 23.3951 55.4279 22.7508 56.3407 21.7305C56.7882 21.2293 56.6987 20.4596 56.1618 20.0837C55.7143 19.7794 55.1594 19.8868 54.7477 20.2269C54.3539 20.567 53.6021 21.2472 52.3849 21.2472C50.9529 21.2472 49.7357 20.0121 49.4672 18.3832H56.0007V18.419ZM52.367 14.141C53.6558 14.141 54.7656 15.1434 55.1773 16.5216H49.5567C49.9684 15.1255 51.0782 14.141 52.367 14.141Z" fill="#1B1B1B" fill-opacity="0.55"/>
<path d="M47.3721 13.1031C47.3721 12.5661 46.9783 12.1365 46.4772 12.047C44.9199 11.8143 43.4521 12.3871 42.6108 13.4432V13.3C42.6108 12.6377 42.0738 12.226 41.5368 12.226C40.9461 12.226 40.4628 12.7093 40.4628 13.3V22.0709C40.4628 22.6437 40.8924 23.1449 41.4652 23.1807C42.0917 23.2165 42.6108 22.7332 42.6108 22.1067V17.5781C42.6108 15.5733 44.1144 13.9265 46.1908 14.1592C46.2624 14.1592 46.334 14.1592 46.4056 14.1592C46.9426 14.1234 47.3721 13.658 47.3721 13.1031Z" fill="#1B1B1B" fill-opacity="0.55"/>
<path d="M84.1753 14.249C84.1753 13.6583 83.692 13.175 83.1013 13.175C82.5106 13.175 82.0273 13.6583 82.0273 14.249C82.0273 14.2848 82.0273 21.7669 82.0273 22.107C82.0273 22.6977 82.5106 23.181 83.1013 23.181C83.692 23.181 84.1753 22.6977 84.1753 22.107C84.1753 21.7848 84.1753 14.3027 84.1753 14.249Z" fill="#1B1B1B" fill-opacity="0.55"/>
<path d="M68.2072 8.30604C68.2072 7.71535 67.7239 7.23206 67.1332 7.23206C66.5425 7.23206 66.0592 7.71535 66.0592 8.30604V13.0853C65.3253 12.3514 64.4124 11.9934 63.3206 11.9934C60.4924 11.9934 58.2012 14.5531 58.2012 17.7034C58.2012 20.8538 60.4924 23.4134 63.3206 23.4134C64.4124 23.4134 65.3432 23.0375 66.0771 22.3037C66.1666 22.8048 66.6141 23.1807 67.1332 23.1807C67.7239 23.1807 68.2072 22.6974 68.2072 22.1068V8.30604ZM63.3385 21.2834C61.6917 21.2834 60.3671 19.6903 60.3671 17.7034C60.3671 15.7344 61.6917 14.1235 63.3385 14.1235C64.9852 14.1235 66.3098 15.7165 66.3098 17.7034C66.3098 19.6903 64.9673 21.2834 63.3385 21.2834Z" fill="#1B1B1B" fill-opacity="0.55"/>
<path d="M79.4122 8.30604C79.4122 7.71535 78.9289 7.23206 78.3382 7.23206C77.7475 7.23206 77.2643 7.71535 77.2643 8.30604V13.0853C76.5304 12.3514 75.6175 11.9934 74.5256 11.9934C71.6975 11.9934 69.4062 14.5531 69.4062 17.7034C69.4062 20.8538 71.6975 23.4134 74.5256 23.4134C75.6175 23.4134 76.5483 23.0375 77.2822 22.3037C77.3717 22.8048 77.8191 23.1807 78.3382 23.1807C78.9289 23.1807 79.4122 22.6974 79.4122 22.1068V8.30604ZM74.5256 21.2834C72.8789 21.2834 71.5543 19.6903 71.5543 17.7034C71.5543 15.7344 72.8789 14.1235 74.5256 14.1235C76.1724 14.1235 77.4969 15.7165 77.4969 17.7034C77.4969 19.6903 76.1724 21.2834 74.5256 21.2834Z" fill="#1B1B1B" fill-opacity="0.55"/>
<path d="M89.6153 22.1245V14.1412H90.564C91.0652 14.1412 91.5127 13.7653 91.5485 13.2462C91.5843 12.6913 91.1368 12.226 90.5998 12.226H89.6153V10.7224C89.6153 10.1496 89.1858 9.64838 88.613 9.61259C87.9865 9.57679 87.4674 10.0601 87.4674 10.6866V12.2439H86.5724C86.0712 12.2439 85.6237 12.6197 85.5879 13.1388C85.5521 13.6937 85.9996 14.1591 86.5366 14.1591H87.4495V22.1424C87.4495 22.7331 87.9328 23.2164 88.5235 23.2164C89.15 23.1806 89.6153 22.7152 89.6153 22.1245Z" fill="#1B1B1B" fill-opacity="0.55"/>
<path fill-rule="evenodd" clip-rule="evenodd" d="M34.4492 15C34.4492 23.2843 27.7334 30 19.4493 30C11.165 30 4.44922 23.2843 4.44922 15C4.44922 6.71573 11.165 0 19.4493 0C27.7334 0 34.4492 6.71573 34.4492 15ZM27.271 12.8165C28.4703 12.8165 29.4547 13.7831 29.4547 15.0003C29.4547 15.8953 28.9178 16.665 28.166 17.0051C28.2018 17.2199 28.2197 17.4526 28.2197 17.6674C28.2197 21.0504 24.2995 23.7712 19.4667 23.7712C14.6336 23.7712 10.7136 21.0325 10.7136 17.6674C10.7136 17.4347 10.7316 17.2199 10.7674 17.0051C10.0156 16.665 9.47857 15.9132 9.47857 15.0182C9.47857 13.8189 10.4452 12.8344 11.6623 12.8344C12.253 12.8344 12.79 13.0671 13.1838 13.443C14.7052 12.3511 16.7996 11.653 19.1265 11.5814L20.2363 6.35472C20.2542 6.24732 20.3079 6.15782 20.3974 6.10412C20.469 6.05042 20.5764 6.03252 20.6838 6.05042L24.3174 6.82011C24.5681 6.30102 25.105 5.94302 25.7136 5.94302C26.5728 5.94302 27.271 6.64111 27.271 7.5003C27.271 8.35949 26.5728 9.05758 25.7136 9.05758C24.8723 9.05758 24.1922 8.39529 24.1563 7.5719L20.8986 6.87381L19.8962 11.5635C22.1873 11.653 24.2459 12.3511 25.7495 13.4251C26.1433 13.0492 26.6803 12.8165 27.271 12.8165ZM16.0119 15.0003C15.1528 15.0003 14.4548 15.6984 14.4548 16.5576C14.4548 17.4168 15.1528 18.1328 16.0119 18.1149C16.8711 18.1149 17.5693 17.4168 17.5693 16.5576C17.5693 15.6984 16.8711 15.0003 16.0119 15.0003ZM19.4667 21.838C20.0574 21.838 22.0979 21.7664 23.1719 20.6924C23.3151 20.5313 23.3151 20.2807 23.1719 20.1196C23.0107 19.9585 22.7602 19.9585 22.5991 20.1196C21.9369 20.7998 20.4869 21.0325 19.4667 21.0325C18.4464 21.0325 17.0143 20.7998 16.3342 20.1196C16.173 19.9585 15.9225 19.9585 15.7613 20.1196C15.6002 20.2807 15.6002 20.5313 15.7613 20.6924C16.8174 21.7485 18.8581 21.838 19.4667 21.838ZM21.3283 16.5755C21.3283 17.4347 22.0264 18.1328 22.8855 18.1328C23.7446 18.1328 24.4428 17.4168 24.4428 16.5755C24.4428 15.7163 23.7446 15.0182 22.8855 15.0182C22.0264 15.0182 21.3283 15.7163 21.3283 16.5755Z" fill="#1B1B1B" fill-opacity="0.55"/>
</g>
</g>
<defs>
<filter id="filter0_d_15_1021" x="-0.15625" y="0" width="96" height="38" filterUnits="userSpaceOnUse" color-interpolation-filters="sRGB">
<feFlood flood-opacity="0" result="BackgroundImageFix"/>
<feColorMatrix in="SourceAlpha" type="matrix" values="0 0 0 0 0 0 0 0 0 0 0 0 0 0 0 0 0 0 127 0" result="hardAlpha"/>
<feOffset dy="4"/>
<feGaussianBlur stdDeviation="2"/>
<feComposite in2="hardAlpha" operator="out"/>
<feColorMatrix type="matrix" values="0 0 0 0 0 0 0 0 0 0 0 0 0 0 0 0 0 0 0.25 0"/>
<feBlend mode="normal" in2="BackgroundImageFix" result="effect1_dropShadow_15_1021"/>
<feBlend mode="normal" in="SourceGraphic" in2="effect1_dropShadow_15_1021" result="shape"/>
</filter>
<clipPath id="clip0_15_1021">
<rect width="88" height="30" fill="white" transform="translate(3.84375)"/>
</clipPath>
</defs>
</svg>
