<svg width="107" height="26" viewBox="0 0 107 26" fill="none" xmlns="http://www.w3.org/2000/svg">
<g clip-path="url(#clip0_15_931)">
<mask id="mask0_15_931" style="mask-type:luminance" maskUnits="userSpaceOnUse" x="0" y="0" width="106" height="26">
<path d="M105.551 0.0783691H0.726562V25.9216H105.551V0.0783691Z" fill="white"/>
</mask>
<g mask="url(#mask0_15_931)">
<path d="M23.6477 0.0783691H3.99294C2.17614 0.0783691 0.726562 1.52472 0.726562 3.30223V22.6977C0.726562 24.4752 2.19414 25.9216 3.99294 25.9216H23.6309C25.4477 25.9216 26.8974 24.4752 26.8974 22.6977V3.31967C26.9154 1.52472 25.4477 0.0783691 23.6477 0.0783691ZM17.3057 4.81835C17.3057 4.34778 17.6909 3.96442 18.1793 3.96442C18.6689 3.96442 19.0529 4.34778 19.0529 4.81835V16.3371C19.0529 16.8077 18.6689 17.191 18.1793 17.191C17.6909 17.191 17.3057 16.8077 17.3057 16.3371V4.81835ZM12.9557 4.38267C12.9557 3.9121 13.3397 3.52874 13.8293 3.52874C14.3189 3.52874 14.7029 3.9121 14.7029 4.38267V16.8773C14.7029 17.3479 14.3189 17.7312 13.8293 17.7312C13.3397 17.7312 12.9557 17.3479 12.9557 16.8773V4.38267ZM8.58776 4.81835C8.58776 4.34778 8.97295 3.96442 9.46135 3.96442C9.95095 3.96442 10.3349 4.34778 10.3349 4.81835V16.3371C10.3349 16.8077 9.95095 17.191 9.46135 17.191C8.97295 17.191 8.58776 16.8077 8.58776 16.3371V4.81835ZM4.22095 6.54354C4.22095 6.07297 4.60494 5.68961 5.09454 5.68961C5.58294 5.68961 5.96693 6.07297 5.96693 6.54354V14.2982C5.96693 14.7688 5.58294 15.1521 5.09454 15.1521C4.60494 15.1521 4.22095 14.7688 4.22095 14.2982V6.54354ZM23.1233 19.6829C22.9841 19.8049 19.7513 22.4711 13.8293 22.4711C7.90733 22.4711 4.67454 19.7875 4.53534 19.6829C4.16814 19.3692 4.13334 18.8291 4.44774 18.4631C4.76214 18.0972 5.30336 18.0623 5.67056 18.376C5.72336 18.4109 8.60573 20.7634 13.8293 20.7634C19.1225 20.7634 21.9701 18.4109 21.9881 18.3934C22.3553 18.0797 22.8966 18.132 23.211 18.4805C23.5254 18.8291 23.4905 19.3867 23.1233 19.6829ZM23.4209 14.2982C23.4209 14.7688 23.037 15.1521 22.5474 15.1521C22.0578 15.1521 21.6738 14.7688 21.6738 14.2982V6.54354C21.6738 6.07297 22.0578 5.68961 22.5474 5.68961C23.037 5.68961 23.4209 6.07297 23.4209 6.54354V14.2982Z" fill="#1B1B1B" fill-opacity="0.55"/>
<path d="M37.0646 16.737C37.0646 17.1726 36.7334 17.5212 36.2618 17.5212C35.807 17.5212 35.4746 17.1726 35.4746 16.737V9.24364C35.4746 8.80807 35.807 8.45947 36.2786 8.45947C36.7334 8.45947 37.0646 8.80807 37.0646 9.24364V16.737Z" fill="#1B1B1B" fill-opacity="0.55"/>
<path d="M47.3372 9.24496V16.0935C47.3372 17.0171 46.8476 17.5398 46.0448 17.5398H45.974C45.2228 17.5398 44.8736 17.1042 44.5424 16.4769L42.9344 13.375L41.5196 10.1685L41.5544 13.2704L41.5724 16.7382C41.5724 17.1738 41.24 17.5224 40.7684 17.5224C40.3136 17.5224 39.9824 17.1738 39.9824 16.7382V9.88971C39.9824 9.03578 40.4708 8.44336 41.3444 8.44336H41.4152C42.218 8.44336 42.5504 8.87893 42.8648 9.50635L44.4368 12.5908L45.782 15.588L45.7472 12.7128L45.7304 9.24496C45.7304 8.80928 46.0616 8.46068 46.5332 8.46068C47.0048 8.46068 47.3372 8.82672 47.3372 9.24496Z" fill="#1B1B1B" fill-opacity="0.55"/>
<path d="M53.6957 16.737C53.6957 17.1727 53.3645 17.5212 52.8929 17.5212C52.4381 17.5212 52.1069 17.1727 52.1069 16.737V9.95829H50.1317C49.7297 9.95829 49.3984 9.66202 49.3984 9.20889C49.3984 8.77332 49.7297 8.47705 50.1317 8.47705H55.6709C56.0717 8.47705 56.4041 8.77332 56.4041 9.22633C56.4041 9.66202 56.0717 9.95829 55.6709 9.95829H53.6957V16.737Z" fill="#1B1B1B" fill-opacity="0.55"/>
<path d="M58.4867 16.4759V9.4357C58.4867 8.77351 58.8527 8.40747 59.5343 8.42491H64.1111C64.5131 8.42491 64.8455 8.73863 64.8455 9.17431C64.8455 9.60988 64.5131 9.90615 64.1111 9.90615H60.0587V12.0845H63.6227C64.0247 12.0845 64.3391 12.3807 64.3391 12.799C64.3391 13.2171 64.0247 13.5134 63.6227 13.5134H60.0587V16.0227H64.0943C64.4963 16.0227 64.8275 16.3364 64.8275 16.7721C64.8275 17.2078 64.4963 17.504 64.0943 17.504H59.4815C58.8359 17.5214 58.4507 17.1555 58.4867 16.4759Z" fill="#1B1B1B" fill-opacity="0.55"/>
<path d="M73.8742 16.4934C74.0842 16.8593 73.945 17.3299 73.5082 17.5564C73.0714 17.7655 72.5986 17.6086 72.3898 17.2427L70.6246 13.984H68.9482L68.965 16.7548C68.965 17.1905 68.6338 17.539 68.161 17.539C67.7074 17.539 67.375 17.1905 67.375 16.7548V9.45316C67.375 8.79097 67.7422 8.42505 68.4238 8.44249H71.4106C73.4902 8.44249 74.3458 9.78431 74.3458 11.1609C74.3458 12.468 73.5778 13.4264 72.2674 13.6878L73.8742 16.4934ZM68.9302 12.555H71.4466C72.3022 12.555 72.739 12.0148 72.739 11.2307C72.739 10.4639 72.2674 9.92373 71.4286 9.92373H68.9302V12.555Z" fill="#1B1B1B" fill-opacity="0.55"/>
<path d="M77.63 16.8423C76.6688 15.9884 76.25 14.664 76.25 12.9911C76.25 11.3007 76.6688 9.99377 77.612 9.15728C78.1892 8.65194 78.9932 8.30347 80.1284 8.30347C81.1412 8.30347 81.9104 8.52997 82.4864 9.01786C82.994 9.41867 83.36 9.99377 83.588 10.7954C83.7092 11.2136 83.4128 11.6319 82.9232 11.719C82.4696 11.7887 82.1024 11.5099 81.9632 11.0916C81.806 10.6908 81.6128 10.3946 81.3692 10.1855C81.0368 9.88924 80.6348 9.76726 80.0936 9.76726C79.5164 9.76726 79.028 9.92412 78.6608 10.3075C78.1196 10.8477 77.8916 11.7887 77.8916 12.9911C77.8916 14.1761 78.1016 15.1346 78.6608 15.6748C79.028 16.0407 79.5164 16.215 80.0756 16.215C80.6528 16.215 81.1064 16.0581 81.4736 15.727C81.6656 15.5528 81.8228 15.3262 81.9452 15.0473C82.1024 14.6465 82.4516 14.3677 82.9064 14.4724C83.3432 14.5769 83.6228 15.0126 83.4824 15.4308C83.2556 16.1278 82.8536 16.6854 82.3292 17.0688C81.7532 17.487 81.0188 17.6962 80.1104 17.6962C78.9224 17.6788 78.1892 17.3302 77.63 16.8423Z" fill="#1B1B1B" fill-opacity="0.55"/>
<path d="M85.3711 12.9911C85.3711 10.1506 86.5411 8.30347 89.3023 8.30347C92.0275 8.30347 93.2155 10.0983 93.2155 12.9911C93.2155 15.9187 92.0275 17.6788 89.3023 17.6788C86.5243 17.6788 85.3711 15.9187 85.3711 12.9911ZM91.5907 12.9911C91.5907 10.8303 90.8047 9.7847 89.2843 9.7847C87.7999 9.7847 87.0127 10.8303 87.0127 12.9911C87.0127 15.152 87.7819 16.1975 89.2843 16.1975C90.7867 16.1975 91.5907 15.152 91.5907 12.9911Z" fill="#1B1B1B" fill-opacity="0.55"/>
<path d="M105.55 16.7373C105.55 17.173 105.218 17.5215 104.746 17.5215C104.292 17.5215 103.96 17.173 103.96 16.7373V13.3391L103.995 10.0282L102.894 13.3915L101.776 16.7024C101.584 17.2775 101.2 17.5215 100.692 17.5215C100.169 17.5215 99.7839 17.2775 99.5919 16.7024L98.4387 13.4089L97.3911 10.0978L97.4259 13.3566V16.7547C97.4259 17.1903 97.0935 17.5389 96.6219 17.5389C96.1683 17.5389 95.8359 17.1903 95.8359 16.7547V9.97587C95.8359 9.03485 96.3423 8.49463 97.2339 8.49463C98.0727 8.49463 98.5443 8.93031 98.8059 9.74936L99.9771 13.2172L100.692 15.5697L101.409 13.2172L102.58 9.74936C102.842 8.93031 103.296 8.49463 104.152 8.49463C105.044 8.49463 105.532 9.03485 105.532 9.97587L105.55 16.7373Z" fill="#1B1B1B" fill-opacity="0.55"/>
</g>
</g>
<defs>
<clipPath id="clip0_15_931">
<rect width="106" height="26" fill="white" transform="translate(0.125)"/>
</clipPath>
</defs>
</svg>
