<svg width="89" height="22" viewBox="0 0 89 22" fill="none" xmlns="http://www.w3.org/2000/svg">
<g clip-path="url(#clip0_15_963)">
<mask id="mask0_15_963" style="mask-type:luminance" maskUnits="userSpaceOnUse" x="1" y="0" width="88" height="22">
<path d="M88.3945 0.498901H1.60547V21.5012H88.3945V0.498901Z" fill="white"/>
</mask>
<g mask="url(#mask0_15_963)">
<path d="M72.0689 9.22733V16.09C71.8941 18.8096 67.8955 18.8096 67.7207 16.09V9.22733H63.9386V16.8333C63.9386 19.402 66.6021 21.4845 69.8807 21.4845C73.1593 21.4845 75.8229 19.402 75.8229 16.8333V9.22733H72.0689ZM84.3678 1.07019V21.0425H88.1708V1.07019H84.3678ZM77.9108 21.0425H81.7138V1.07019H77.9108V21.0425ZM59.285 10.6537C60.3384 9.70814 60.9457 8.36353 60.963 6.94913C60.9606 5.67372 60.4691 4.44901 59.5898 3.52556C58.695 2.52814 57.076 1.96858 54.9057 1.96858H48.4004V21.0425H56.8033C60.0193 20.993 62.6196 18.5602 62.6196 15.5799C62.6149 13.4109 61.8507 11.8605 59.285 10.6537ZM56.0988 17.7197H52.4599V5.25733H54.9952C56.134 5.31042 57.0288 6.25654 57.0169 7.39653C57.0169 8.51267 56.1107 9.41643 54.9952 9.41404H53.6757V12.8418H56.0988C59.3637 12.8418 59.3637 17.7358 56.0988 17.7358V17.7197ZM14.8628 7.61547C14.8491 6.10979 14.237 4.67033 13.1597 3.61445C12.0859 2.55916 10.6333 1.97395 9.12648 1.98827H2.16602V21.0425H6.21296V5.25733H8.30862C9.72958 5.20841 10.9161 6.33349 10.9393 7.75565C10.8767 9.17841 9.68067 10.291 8.25493 10.2456H7.31537V14.8062L11.342 21.0425H16.0845L10.492 13.0846C13.0392 12.4922 14.8467 10.2301 14.8628 7.61547ZM21.9408 8.73398C18.4886 8.82705 15.7397 11.6511 15.7397 15.1021C15.7397 18.5561 18.4886 21.3795 21.9408 21.4738C24.5942 21.4738 26.6618 20.2729 27.7314 18.3956L24.6389 16.9663C24.1915 17.8712 23.2609 18.4344 22.2545 18.4111C20.8771 18.4714 19.7151 17.4006 19.6638 16.0226V15.8919H28.0476C28.0732 15.6378 28.0846 15.3848 28.0822 15.1277C28.1412 10.9937 25.4174 8.73398 21.9408 8.73398ZM19.65 13.7229C19.5916 12.3991 20.6498 11.2949 21.9754 11.2949C23.2985 11.2949 24.3562 12.3991 24.2989 13.7229H19.65ZM43.2063 21.0425V1.07019H39.3986V10.523C38.3869 9.50233 37.0094 8.92547 35.5724 8.91772C32.4405 8.91772 29.8819 11.7054 29.8819 15.1415C29.8819 18.5764 32.4328 21.3914 35.5724 21.3914C37.0244 21.3795 38.4083 20.783 39.4165 19.7414V21.0836L43.2063 21.0425ZM36.6515 18.1242C35.1136 18.1242 33.8597 16.7563 33.8597 15.0693C33.8597 13.3828 35.1136 11.9959 36.6515 11.9959C38.1918 11.9959 39.4475 13.3661 39.4475 15.0556C39.4475 16.7474 38.1966 18.1242 36.6515 18.1242Z" fill="#1B1B1B" fill-opacity="0.55"/>
</g>
</g>
<defs>
<clipPath id="clip0_15_963">
<rect width="88" height="22" fill="white" transform="translate(0.84375)"/>
</clipPath>
</defs>
</svg>
