<svg width="54" height="28" viewBox="0 0 54 28" fill="none" xmlns="http://www.w3.org/2000/svg">
<mask id="mask0_15_991" style="mask-type:luminance" maskUnits="userSpaceOnUse" x="1" y="0" width="52" height="28">
<path d="M52.8724 0H1.53906V28H52.8724V0Z" fill="white"/>
</mask>
<g mask="url(#mask0_15_991)">
<mask id="mask1_15_991" style="mask-type:luminance" maskUnits="userSpaceOnUse" x="1" y="0" width="52" height="28">
<path d="M52.8724 0H1.53906V28H52.8724V0Z" fill="white"/>
</mask>
<g mask="url(#mask1_15_991)">
<path d="M10.9912 2.6709C12.5961 0.984874 14.7248 0 17.2258 0C22.0979 0 25.3281 3.55724 25.9461 8.88624C26.1465 10.6168 26.1446 13.0567 26.1426 15.8826C26.1424 16.1724 26.1422 16.4664 26.1422 16.764V27.3506H19.4421V19.5204C19.4421 19.5204 19.4285 12.8188 19.3875 11.5664C19.2077 6.11143 15.9784 2.68382 10.9905 2.68013C9.48567 4.27005 8.67934 6.21401 8.56042 9.18636C8.54408 9.60094 8.54819 11.0704 8.55361 13.0071C8.55642 14.0106 8.55958 15.1395 8.56042 16.3121C8.56539 21.4159 8.56042 27.3517 8.56042 27.3517H1.86041V15.3011C1.86041 14.8882 1.85288 14.4718 1.84533 14.0537C1.83013 13.2128 1.81482 12.3653 1.86041 11.5262C1.93611 10.1273 2.1781 8.75219 2.83085 7.4747C4.32498 4.54807 7.38646 2.66373 10.6503 2.66373C10.7643 2.66373 10.8783 2.66612 10.9912 2.6709Z" fill="#1B1B1B" fill-opacity="0.55"/>
<path d="M52.5507 16.474C52.5963 15.6348 52.581 14.7873 52.5659 13.9464C52.5583 13.5284 52.5507 13.112 52.5507 12.699V0.648424H45.8508C45.8508 0.648424 45.8458 6.58425 45.8508 11.688C45.8516 12.8606 45.8547 13.9894 45.8575 14.9929C45.8629 16.9297 45.867 18.3991 45.8508 18.8137C45.7319 21.7862 44.9255 23.7301 43.4206 25.32C38.4329 25.3163 35.2036 21.8886 35.0237 16.4338C34.9827 15.1813 34.9654 12.0732 34.9654 8.4735V0.643311L28.2704 0.649567V11.2362C28.2704 11.5338 28.2701 11.8276 28.2699 12.1175C28.2678 14.9435 28.2661 17.3833 28.4664 19.1139C29.0831 24.4429 32.3134 28.0002 37.1855 28.0002C39.6865 28.0002 41.8153 27.0153 43.4201 25.3292C43.5329 25.334 43.6469 25.3364 43.7609 25.3364C47.0247 25.3364 50.0862 23.4521 51.5804 20.5255C52.2331 19.2479 52.4751 17.8728 52.5507 16.474Z" fill="#1B1B1B" fill-opacity="0.55"/>
</g>
</g>
</svg>
