<svg width="94" height="22" viewBox="0 0 94 22" fill="none" xmlns="http://www.w3.org/2000/svg">
<mask id="mask0_15_1035" style="mask-type:luminance" maskUnits="userSpaceOnUse" x="0" y="0" width="94" height="22">
<path d="M93.8759 0.51062H0.980469V21.4894H93.8759V0.51062Z" fill="white"/>
</mask>
<g mask="url(#mask0_15_1035)">
<mask id="mask1_15_1035" style="mask-type:luminance" maskUnits="userSpaceOnUse" x="0" y="0" width="94" height="22">
<path d="M93.8759 0.51062H0.980469V21.4894H93.8759V0.51062Z" fill="white"/>
</mask>
<g mask="url(#mask1_15_1035)">
<path d="M91.2299 16.0376C90.8809 16.0389 90.5356 16.109 90.2138 16.244C89.8919 16.3789 89.5998 16.5759 89.3542 16.8238C89.1086 17.0718 88.9142 17.3657 88.7823 17.6888C88.6505 18.0119 88.5836 18.3579 88.5855 18.7068C88.5836 19.0558 88.6505 19.4018 88.7823 19.7249C88.9142 20.048 89.1086 20.3419 89.3542 20.5899C89.5998 20.8378 89.8919 21.0348 90.2138 21.1697C90.5356 21.3046 90.8809 21.3748 91.2299 21.3761C92.6886 21.3761 93.8743 20.1804 93.8743 18.7068C93.8763 18.3579 93.8094 18.0119 93.6775 17.6888C93.5456 17.3657 93.3513 17.0718 93.1057 16.8238C92.8601 16.5759 92.568 16.3789 92.2461 16.244C91.9242 16.109 91.5789 16.0389 91.2299 16.0376ZM82.5277 13.9762C82.5277 11.9569 80.8185 10.3222 78.71 10.3222C76.6014 10.3222 74.8922 11.9594 74.8922 13.9762C74.8922 15.993 76.6039 17.6278 78.7124 17.6278C80.821 17.6278 82.5277 15.993 82.5277 13.9762ZM82.5426 6.87402H86.7548V21.0759H82.5426V20.168C81.3145 21.0157 79.8574 21.4691 78.3651 21.4678C74.2646 21.4678 70.9405 18.114 70.9405 13.9762C70.9405 9.83843 74.2646 6.48456 78.3651 6.48456C79.9156 6.48456 81.3519 6.96333 82.5426 7.78443V6.87402ZM48.8253 8.72461V6.8765H44.5114V21.0759H48.8352V14.445C48.8352 12.2075 51.2365 11.0068 52.9035 11.0068H52.9531V6.8765C51.2414 6.8765 49.6712 7.61574 48.8253 8.72461ZM38.079 13.9762C38.079 11.9569 36.3698 10.3222 34.2612 10.3222C32.1526 10.3222 30.4434 11.9594 30.4434 13.9762C30.4434 15.993 32.1551 17.6278 34.2637 17.6278C36.3723 17.6278 38.079 15.993 38.079 13.9762ZM38.0938 6.87402H42.3085V21.0759H38.0938V20.168C36.9031 20.9866 35.4668 21.4678 33.9164 21.4678C29.8158 21.4678 26.4917 18.114 26.4917 13.9762C26.4917 9.83843 29.8158 6.48456 33.9164 6.48456C35.4668 6.48456 36.9031 6.96333 38.0938 7.78443V6.87402ZM63.4538 6.49448C61.7719 6.49448 60.1793 7.02038 59.1126 8.47406V6.8765H54.9178V21.0759H59.1647V13.614C59.1647 11.4558 60.5985 10.3966 62.3276 10.3966C64.1782 10.3966 65.2448 11.5129 65.2448 13.5843V21.0759H69.4521V12.0462C69.4521 8.74197 66.8474 6.49448 63.4538 6.49448ZM20.3545 21.0759H24.7652V0.548298H20.3545V21.0759ZM0.980469 21.0809H5.65158V0.543335H0.982949L0.980469 21.0809ZM17.3182 0.543335C17.3182 4.98871 15.6015 9.12648 12.5404 12.2L18.9951 21.0809H13.2275L6.21469 11.431L8.02559 10.0617C9.49979 8.95294 10.6942 7.51475 11.5135 5.86204C12.3327 4.20934 12.754 2.38792 12.7438 0.543335H17.3132H17.3182Z" fill="#1B1B1B" fill-opacity="0.55"/>
</g>
</g>
</svg>
