<svg width="108" height="26" viewBox="0 0 108 26" fill="none" xmlns="http://www.w3.org/2000/svg">
<g clip-path="url(#clip0_15_945)" filter="url(#filter0_d_15_945)">
<mask id="mask0_15_945" style="mask-type:luminance" maskUnits="userSpaceOnUse" x="4" y="0" width="100" height="18">
<path d="M103.318 0.388672H4.81836V17.6112H103.318V0.388672Z" fill="white"/>
</mask>
<g mask="url(#mask0_15_945)">
<path d="M17.5366 3.23701C17.5366 3.23701 15.6156 1.64724 13.1647 1.64724C13.1647 1.64724 10.2501 1.64724 8.19663 3.76694C8.19663 3.76694 6.14317 5.88663 6.14317 8.80121C6.14317 8.80121 6.14317 11.7158 8.19663 13.8355C8.19663 13.8355 10.2501 15.8889 13.1647 15.8889C13.1647 15.8889 15.6156 15.8889 17.5366 14.3654L18.4639 15.2928C18.4639 15.2928 16.1455 17.2138 13.1647 17.2138C13.1647 17.2138 9.72016 17.2138 7.26926 14.6966C7.26926 14.6966 4.81836 12.2457 4.81836 8.80121C4.81836 8.80121 4.81836 5.35671 7.26926 2.90581C7.26926 2.90581 9.72015 0.388672 13.1647 0.388672C13.1647 0.388672 16.1455 0.388672 18.4639 2.2434L17.5366 3.23701Z" fill="#1B1B1B" fill-opacity="0.55"/>
<path d="M24.2267 6.34985C21.9745 6.34985 20.3847 7.93962 20.3847 7.93962C18.7949 9.5294 18.7949 11.7816 18.7949 11.7816C18.7949 14.0337 20.3847 15.6235 20.3847 15.6235C21.9745 17.2133 24.2267 17.2133 24.2267 17.2133C26.81 17.2133 28.5323 15.0274 28.5323 15.0274V16.9483H29.7246V6.68106H28.5323V8.46955C26.8763 6.34985 24.2267 6.34985 24.2267 6.34985ZM24.2267 7.54218C25.9489 7.54218 27.2075 8.73451 27.2075 8.73451C28.4661 9.99308 28.4661 11.7816 28.4661 11.7816C28.4661 13.5038 27.2075 14.7624 27.2075 14.7624C25.9489 16.021 24.2267 16.021 24.2267 16.021C22.4382 16.021 21.2458 14.7624 21.2458 14.7624C19.9873 13.5038 19.9873 11.7816 19.9873 11.7816C19.9873 9.99308 21.2458 8.73451 21.2458 8.73451C22.4382 7.54218 24.2267 7.54218 24.2267 7.54218Z" fill="#1B1B1B" fill-opacity="0.55"/>
<path d="M46.8146 1.97885C46.8146 1.97885 46.086 1.97885 46.086 1.25021C46.086 1.25021 46.086 0.455322 46.8146 0.455322C46.8146 0.455322 47.6095 0.455322 47.6095 1.25021C47.6095 1.25021 47.6095 1.97885 46.8146 1.97885Z" fill="#1B1B1B" fill-opacity="0.55"/>
<path d="M33.3016 0.455322V16.9492H32.043V0.455322H33.3016Z" fill="#1B1B1B" fill-opacity="0.55"/>
<path d="M39.5947 14.6967L43.2379 6.68164H44.5627L39.5947 17.6113L34.4942 6.68164H35.8852L39.5947 14.6967Z" fill="#1B1B1B" fill-opacity="0.55"/>
<path d="M50.8544 7.6754C50.8544 7.6754 51.848 6.35059 53.7689 6.35059C53.7689 6.35059 55.4912 6.35059 56.6835 7.54291C56.6835 7.54291 57.8759 8.73524 57.8759 10.4575V16.9491H56.6835V10.4575C56.6835 10.4575 56.6835 9.19893 55.8224 8.3378C55.8224 8.3378 55.0275 7.47667 53.7689 7.47667C53.7689 7.47667 52.5766 7.47667 51.7155 8.27156C51.7155 8.27156 50.8544 9.13269 50.8544 10.4575V16.9491H49.662V6.68179H50.8544V7.6754Z" fill="#1B1B1B" fill-opacity="0.55"/>
<path d="M47.411 6.68164V16.9489H46.2188V6.68164H47.411Z" fill="#1B1B1B" fill-opacity="0.55"/>
<path d="M73.7079 0.521563L67.1501 7.60929L73.6417 16.9492H72.1181L66.289 8.53666L65.0967 9.79523V16.9492H63.9043V0.455322H65.0967V7.9405L71.9857 0.521563H73.7079Z" fill="#1B1B1B" fill-opacity="0.55"/>
<path d="M76.7565 0.455322V16.9492H75.498V0.455322H76.7565Z" fill="#1B1B1B" fill-opacity="0.55"/>
<path d="M84.1077 6.34985C81.8555 6.34985 80.2657 7.93962 80.2657 7.93962C78.7422 9.46316 78.7422 11.7816 78.7422 11.7816C78.7422 14.0337 80.2657 15.5573 80.2657 15.5573C81.8555 17.147 84.1077 17.147 84.1077 17.147C87.5522 17.147 89.0095 14.1 89.0095 14.1L87.9496 13.6363C86.7573 15.9547 84.1077 15.9547 84.1077 15.9547C82.3854 15.9547 81.1931 14.7624 81.1931 14.7624C79.9345 13.5701 79.9345 11.8478 79.9345 11.8478H89.5394V11.7816C89.5394 9.46316 87.9496 7.93962 87.9496 7.93962C86.3599 6.34985 84.1077 6.34985 84.1077 6.34985ZM84.1077 7.47594C85.565 7.47594 86.6911 8.40331 86.6911 8.40331C87.8172 9.26443 88.2146 10.5892 88.2146 10.5892H80.067C80.4645 9.26443 81.5243 8.40331 81.5243 8.40331C82.7166 7.47594 84.1077 7.47594 84.1077 7.47594Z" fill="#1B1B1B" fill-opacity="0.55"/>
<path d="M91.3946 1.25021C91.3946 1.25021 91.3946 0.455322 92.1232 0.455322C92.1232 0.455322 92.8518 0.455322 92.8518 1.25021C92.8518 1.25021 92.8518 1.97885 92.1232 1.97885C92.1232 1.97885 91.3946 1.97885 91.3946 1.25021Z" fill="#1B1B1B" fill-opacity="0.55"/>
<path d="M96.2957 6.68179V7.6754C96.2957 7.6754 97.2231 6.35059 99.2103 6.35059C99.2103 6.35059 100.932 6.35059 102.125 7.54291C102.125 7.54291 103.317 8.73524 103.317 10.4575V16.9491H102.059V10.4575C102.059 10.4575 102.059 9.19893 101.264 8.3378C101.264 8.3378 100.403 7.47667 99.2103 7.47667C99.2103 7.47667 97.9517 7.47667 97.1568 8.27156C97.1568 8.27156 96.2957 9.13269 96.2957 10.4575V16.9491H95.037V6.68179H96.2957Z" fill="#1B1B1B" fill-opacity="0.55"/>
<path d="M92.7196 6.68164V16.9489H91.5273V6.68164H92.7196Z" fill="#1B1B1B" fill-opacity="0.55"/>
</g>
</g>
<defs>
<filter id="filter0_d_15_945" x="0.484375" y="0" width="107" height="26" filterUnits="userSpaceOnUse" color-interpolation-filters="sRGB">
<feFlood flood-opacity="0" result="BackgroundImageFix"/>
<feColorMatrix in="SourceAlpha" type="matrix" values="0 0 0 0 0 0 0 0 0 0 0 0 0 0 0 0 0 0 127 0" result="hardAlpha"/>
<feOffset dy="4"/>
<feGaussianBlur stdDeviation="2"/>
<feComposite in2="hardAlpha" operator="out"/>
<feColorMatrix type="matrix" values="0 0 0 0 0 0 0 0 0 0 0 0 0 0 0 0 0 0 0.25 0"/>
<feBlend mode="normal" in2="BackgroundImageFix" result="effect1_dropShadow_15_945"/>
<feBlend mode="normal" in="SourceGraphic" in2="effect1_dropShadow_15_945" result="shape"/>
</filter>
<clipPath id="clip0_15_945">
<rect width="99" height="18" fill="white" transform="translate(4.48438)"/>
</clipPath>
</defs>
</svg>
