<svg width="107" height="30" viewBox="0 0 107 30" fill="none" xmlns="http://www.w3.org/2000/svg">
<mask id="mask0_15_1002" style="mask-type:luminance" maskUnits="userSpaceOnUse" x="1" y="0" width="105" height="30">
<path d="M105.177 0.898193H1.09961V29.1015H105.177V0.898193Z" fill="white"/>
</mask>
<g mask="url(#mask0_15_1002)">
<path d="M25.5405 20.2239L25.5259 20.1775L34.7799 11.7057V7.62378H19.9334V11.7057H28.8013L28.8158 11.7448L19.6523 20.2239V24.3059H34.9289V20.2239H25.5405Z" fill="#1B1B1B" fill-opacity="0.55"/>
<path d="M44.0411 7.23486C42.3286 7.23486 40.9329 7.49314 39.854 8.0097C38.8493 8.45987 38.0027 9.20159 37.4245 10.1386C36.8714 11.0819 36.524 12.1314 36.4053 13.2184L40.91 13.8515C41.073 12.8917 41.399 12.2114 41.8877 11.8105C42.4435 11.3913 43.1283 11.1794 43.8235 11.2117C44.7378 11.2117 45.4009 11.4561 45.8133 11.9449C46.2215 12.4338 46.4292 13.1109 46.4292 14.003V14.4479H42.0979C39.8932 14.4479 38.3093 14.9367 37.3464 15.9144C36.3833 16.8921 35.9026 18.1827 35.9043 19.7861C35.9043 21.4287 36.3849 22.6508 37.3464 23.4524C38.3077 24.2542 39.5168 24.6527 40.9737 24.6477C42.7807 24.6477 44.1707 24.0261 45.1435 22.7828C45.718 22.0187 46.1282 21.1441 46.3485 20.2139H46.5123L47.1332 24.2957H51.2151V13.959C51.2151 11.8227 50.6521 10.168 49.5261 8.99475C48.4 7.82151 46.5718 7.23486 44.0411 7.23486ZM45.4686 19.9768C44.8208 20.5169 43.9728 20.7858 42.9168 20.7858C42.0465 20.7858 41.442 20.6335 41.1032 20.3287C40.9381 20.1846 40.8066 20.0058 40.7183 19.8052C40.63 19.6045 40.5869 19.3869 40.5924 19.1677C40.5826 18.961 40.6153 18.7546 40.6879 18.5608C40.7605 18.3671 40.8719 18.1902 41.0151 18.0409C41.17 17.8956 41.3527 17.7833 41.5524 17.7106C41.752 17.6379 41.9641 17.6064 42.1762 17.6181H46.4365V17.8991C46.4453 18.2965 46.3624 18.6905 46.1946 19.0507C46.0267 19.4109 45.7783 19.7278 45.4686 19.9768Z" fill="#1B1B1B" fill-opacity="0.55"/>
<path d="M75.8948 7.62378H71.0723V24.3082H75.8948V7.62378Z" fill="#1B1B1B" fill-opacity="0.55"/>
<path d="M104.367 7.62378C103.005 7.62378 101.931 8.10447 101.146 9.0659C100.582 9.7568 100.153 10.7777 99.8598 12.1285H99.718L99.0875 7.62378H94.9688V24.3059H99.7915V15.7509C99.7915 14.6722 100.044 13.8452 100.549 13.27C101.054 12.6948 101.986 12.4072 103.345 12.4072H105.176V7.62378H104.367Z" fill="#1B1B1B" fill-opacity="0.55"/>
<path d="M90.1872 8.16889C89.0613 7.49918 87.6412 7.16513 85.9269 7.16675C83.2286 7.16675 81.1166 7.93507 79.5915 9.47169C78.0661 11.0083 77.3037 13.1267 77.3037 15.8268C77.2647 17.4592 77.6211 19.0768 78.3424 20.5417C79.0026 21.8471 80.0309 22.9306 81.3 23.6581C82.5775 24.3964 84.097 24.7663 85.8584 24.7677C87.3821 24.7677 88.6547 24.5332 89.6764 24.064C90.637 23.6425 91.4734 22.9818 92.106 22.1452C92.7084 21.3238 93.1557 20.3994 93.4259 19.4174L89.2707 18.2539C89.0958 18.8925 88.759 19.4751 88.293 19.9453C87.8236 20.4146 87.0374 20.6493 85.9342 20.6493C84.6226 20.6493 83.6449 20.2737 83.0011 19.5225C82.5344 18.9798 82.2411 18.205 82.1114 17.2004H93.4896C93.536 16.7311 93.5603 16.3376 93.5603 16.0198V14.981C93.5878 13.5855 93.2995 12.2018 92.7171 10.9334C92.1719 9.77785 91.29 8.81421 90.1872 8.16889ZM85.7876 11.1435C87.743 11.1435 88.8519 12.1058 89.1141 14.0302H82.197C82.3069 13.3881 82.5729 12.7829 82.9719 12.2679C83.6058 11.5167 84.5443 11.1419 85.7876 11.1435Z" fill="#1B1B1B" fill-opacity="0.55"/>
<path d="M73.5362 0.899758C73.1733 0.88742 72.8118 0.948136 72.4729 1.0783C72.134 1.20847 71.8249 1.40542 71.5637 1.65746C71.3062 1.91192 71.1043 2.21714 70.9709 2.55375C70.8374 2.89036 70.7754 3.25101 70.7889 3.61284C70.7758 3.97701 70.8381 4.33995 70.9715 4.67901C71.1051 5.01809 71.307 5.32602 71.5647 5.58357C71.8226 5.84112 72.1307 6.04278 72.4698 6.17597C72.8091 6.30917 73.1721 6.37104 73.5362 6.35771C73.8979 6.37139 74.2589 6.30955 74.5954 6.17614C74.932 6.04275 75.2372 5.8407 75.4916 5.58288C75.7438 5.32239 75.9408 5.0136 76.0704 4.67503C76.2003 4.33647 76.2603 3.97518 76.2467 3.61284C76.2634 3.25265 76.2049 2.89294 76.0746 2.55668C75.9445 2.22042 75.7457 1.915 75.4909 1.65992C75.2359 1.40484 74.9308 1.20571 74.5946 1.07524C74.2584 0.944776 73.8988 0.885846 73.5386 0.902205L73.5362 0.899758Z" fill="#1B1B1B" fill-opacity="0.55"/>
<path d="M63.5762 7.16675C61.9338 7.16675 60.6139 7.68247 59.6167 8.71394C58.8783 9.47818 58.3367 10.6188 57.9912 12.1359H57.8371L57.2066 7.63114H53.0879V29.1015H57.9104V20.2582H58.0865C58.2337 20.8478 58.44 21.4211 58.7024 21.9691C59.1104 22.8619 59.7794 23.6102 60.6212 24.1152C61.494 24.5914 62.4771 24.8285 63.4711 24.8021C65.4902 24.8021 67.0276 24.0159 68.0836 22.4433C69.1393 20.8709 69.6674 18.6767 69.6674 15.861C69.6674 13.1413 69.1566 11.0124 68.1348 9.47412C67.1131 7.93588 65.5936 7.16675 63.5762 7.16675ZM64.0651 19.256C63.5029 20.0708 62.623 20.4782 61.4253 20.4782C60.9316 20.5009 60.4393 20.4058 59.9897 20.2005C59.5398 19.9951 59.1456 19.6856 58.8394 19.2976C58.2152 18.5138 57.904 17.4408 57.9056 16.0785V15.7607C57.9056 14.3773 58.2168 13.3181 58.8394 12.5832C59.4618 11.8483 60.3238 11.4849 61.4253 11.4931C62.6443 11.4931 63.5298 11.8801 64.0822 12.6541C64.6346 13.4281 64.9109 14.5077 64.9109 15.8927C64.9142 17.325 64.6338 18.4461 64.0699 19.256H64.0651Z" fill="#1B1B1B" fill-opacity="0.55"/>
<path d="M17.7841 20.2242H1.09961V24.3111H17.7841V20.2242Z" fill="#1B1B1B" fill-opacity="0.55"/>
</g>
</svg>
