<svg width="51" height="30" viewBox="0 0 51 30" fill="none" xmlns="http://www.w3.org/2000/svg">
<path fill-rule="evenodd" clip-rule="evenodd" d="M1.67725 15.0392H4.50982V16.0682H3.63423V17.7922H6.82597V16.0682H5.92513V15.0392H8.80623V16.0682H7.88017V21.1393H8.80623V22.143H5.92319V21.1393H6.82402V18.7979H3.63228V21.1413H4.50788V22.145H1.67725V21.1413H2.57808V16.0702H1.67725V15.0392ZM35.5535 15.0392H41.3721V17.0215H40.3936V16.0682H37.561V17.767H39.98V18.7707H37.561V21.1393H40.3664V19.7744H41.3954V22.143H35.5516V21.1393H36.5048V16.0702H35.5516V15.0392H35.5535ZM10.1206 15.0392H15.9643V17.0215H14.9606V16.0682H12.1281V17.767H14.5471V18.7707H12.1281V21.1393H14.9335V19.7744H15.9624V22.143H10.1187V21.1393H11.0719V16.0702H10.1187V15.0392H10.1206ZM37.2523 14.0879H39.3375L39.852 14.7053H37.8193L37.2523 14.0879ZM47.0857 18.0776C46.3655 17.897 45.8763 17.9223 45.1288 17.6913C44.4842 17.4602 44.3561 17.0739 44.3561 16.8157C44.3561 16.5322 44.6395 15.8372 45.6685 15.8372C46.6974 15.8372 47.3925 16.5322 47.4197 17.1243H48.4234V15.0392H47.4449V15.5032L47.4974 15.6314C47.4721 15.6314 47.4449 15.5537 47.3421 15.4761V15.4508C47.0586 15.1926 46.4664 14.8839 45.5908 14.8839C44.5347 14.8839 43.2999 15.5537 43.2999 16.8137C43.2999 18.0505 44.1755 18.462 44.9482 18.6678C45.6957 18.8736 46.0801 18.8736 46.7247 19.0542C47.3421 19.2095 47.7536 19.5939 47.7536 20.1608C47.7536 20.6753 47.4197 21.3704 46.0801 21.3704C44.7677 21.3704 44.2261 20.65 44.0726 19.6463H43.1194V22.143H44.0979V21.679L44.0726 21.5509C44.0726 21.5509 44.0979 21.6285 44.2279 21.7062V21.7314C44.7172 22.1178 45.387 22.3741 46.2102 22.3741C47.1634 22.3741 48.7845 21.8848 48.7845 20.1861C48.7845 18.9532 48.1419 18.3863 47.0857 18.0776ZM33.2626 21.1413V16.0702H34.2159V15.0412H31.6415L29.9176 19.2114L29.8923 19.4172L29.8399 19.2114L28.1412 15.0412H25.5415V16.0702H26.4948V21.1413H25.5415V22.145H28.4498V21.1413H27.549V16.173L27.6267 16.406L29.6088 21.1431H30.1757L32.158 16.406L32.2104 16.1478L32.2356 16.4312V21.1431H31.3348V22.1469H34.2179V21.1431L33.2626 21.1413ZM12.5144 12.3115H11.5359V12.0533H12.2562C12.2834 12.1057 12.4367 12.2338 12.5144 12.3115ZM37.099 12.3115C37.099 12.2086 37.2019 12.1057 37.33 12.0533H37.8444V12.3115H37.099ZM20.9325 12.4921C20.4957 12.6978 19.954 12.6725 19.5172 12.4921H14.3937C13.8987 12.6978 13.3434 12.6978 12.8483 12.4921H11.5359V12.9813H37.8444V12.4921H20.9325ZM14.7024 12.3115C14.78 12.2591 14.9606 12.0805 14.9859 12.0533H18.9503C19.0008 12.1309 19.1309 12.2591 19.2085 12.3115H14.7024ZM20.2375 12.1562C20.9073 12.1562 21.4723 11.5893 21.4723 10.9214C21.4723 10.2264 20.9053 9.65942 20.2375 9.65942C19.5405 9.66139 18.9775 10.2244 18.9755 10.9214C18.9755 11.5893 19.5424 12.1562 20.2375 12.1562V12.4144C19.3871 12.4144 18.7193 11.7446 18.7193 10.9214C18.7193 10.0711 19.3891 9.40316 20.2375 9.40316C21.0606 9.40316 21.7304 10.073 21.7304 10.9214C21.7304 11.7465 21.0626 12.4144 20.2375 12.4144V12.1562ZM15.3198 10.7156C15.3198 9.78956 14.5471 9.01685 13.621 9.01685C12.6678 9.01685 11.9223 9.78956 11.9223 10.7156C11.9223 11.6688 12.6697 12.4144 13.621 12.4144C14.5471 12.4144 15.3198 11.6669 15.3198 10.7156H15.0364C15.0364 11.5135 14.3918 12.1581 13.621 12.1581C12.827 12.16 12.1805 11.5155 12.1785 10.7215C12.1785 10.7195 12.1785 10.7175 12.1785 10.7175C12.1785 9.91962 12.8231 9.30222 13.621 9.30222C14.4015 9.30025 15.0344 9.93122 15.0364 10.7098C15.0364 10.7118 15.0364 10.7156 15.0364 10.7175H15.3198V10.7156Z" fill="#1B1B1B" fill-opacity="0.55"/>
<path fill-rule="evenodd" clip-rule="evenodd" d="M21.035 11.7698L20.5205 11.1777V11.1524C20.5457 11.1272 20.5457 11.1 20.5709 11.0747L21.3436 11.2806C21.3689 11.2806 21.4213 11.3058 21.4213 11.3311C21.4213 11.3058 21.4465 11.2029 21.4718 11.1505C21.4465 11.1758 21.3941 11.1758 21.3436 11.1758L20.6234 10.9699C20.5982 10.9699 20.5982 10.9447 20.5982 10.9447V10.8166L21.3456 10.5331C21.3456 10.5331 21.4233 10.5331 21.4233 10.5584C21.4233 10.5331 21.3709 10.4031 21.3709 10.3778C21.3709 10.4031 21.3184 10.4555 21.2932 10.4555L21.3456 10.4302L20.5729 10.7137C20.5729 10.7389 20.5729 10.7137 20.5476 10.7137C20.5457 10.6865 20.5244 10.6632 20.4952 10.6613C20.4952 10.636 20.47 10.6088 20.4952 10.6088L20.9068 9.96425C20.9321 9.939 20.9845 9.91185 21.0097 9.91185C20.9845 9.91185 20.8816 9.83419 20.8292 9.80894C20.8544 9.80894 20.8544 9.88659 20.8292 9.91185L20.4176 10.5564H20.3671C20.3671 10.5564 20.3147 10.5311 20.2894 10.5311C20.2894 10.5311 20.2642 10.5311 20.2642 10.506L20.239 9.7604C20.239 9.708 20.239 9.65749 20.2914 9.65749H20.0856C20.1108 9.65749 20.138 9.73514 20.138 9.7604L20.1632 10.506C20.1632 10.5311 20.138 10.5311 20.138 10.5311C20.138 10.5311 20.0856 10.5564 20.0604 10.5836C20.0604 10.5836 20.0351 10.5836 20.0351 10.5584L19.542 9.96812C19.5168 9.94294 19.5168 9.89046 19.5168 9.86529C19.4915 9.89046 19.3886 9.96812 19.3615 9.99337C19.3866 9.99337 19.4391 10.0186 19.4643 10.0458L19.9536 10.6379V10.6632C19.9284 10.6632 19.9011 10.7156 19.9011 10.7408C19.9011 10.7408 19.876 10.7661 19.8487 10.7661L19.1285 10.5603C19.076 10.5351 19.0508 10.5079 19.0508 10.4826C19.0508 10.5079 18.9984 10.6379 18.9984 10.6632C18.9984 10.6632 19.076 10.6379 19.1013 10.6632L19.8216 10.8437C19.8468 10.8437 19.8468 10.869 19.8468 10.869V10.9971L19.1265 11.3058C19.1013 11.3058 19.0489 11.3311 19.0489 11.3058C19.0489 11.3311 19.0741 11.4339 19.0994 11.4864C19.0994 11.4611 19.1518 11.4087 19.177 11.4087L19.872 11.1C19.8973 11.1 19.8973 11.1253 19.8973 11.1253C19.9225 11.1253 19.9497 11.1505 19.9497 11.1758C19.9749 11.1758 19.9749 11.2009 19.9749 11.2009L19.542 11.8475C19.5168 11.8727 19.4896 11.898 19.4643 11.898C19.4896 11.9232 19.5925 12.0009 19.6196 12.0009C19.5944 12.0009 19.6196 11.9232 19.6196 11.898L20.0564 11.2806C20.0564 11.2553 20.0817 11.2553 20.0817 11.2553C20.1069 11.2806 20.1341 11.2806 20.1594 11.2806C20.1846 11.2806 20.1846 11.2806 20.1846 11.3058L20.237 12.0785C20.237 12.1037 20.2118 12.1562 20.1846 12.1562H20.3904C20.338 12.1562 20.338 12.1057 20.338 12.0533L20.2875 11.3058C20.2875 11.2806 20.3128 11.2806 20.3128 11.2806C20.338 11.2806 20.3904 11.2553 20.4156 11.2282C20.4156 11.2282 20.4409 11.2282 20.4409 11.2534L20.9553 11.8203C20.9553 11.8456 20.9806 11.898 20.9806 11.9232L21.1088 11.7951C21.0854 11.8222 21.035 11.7698 21.035 11.7698ZM13.5681 9.73712C14.2884 9.73712 15.0107 9.81478 15.4222 9.94294C15.4727 9.94294 15.4727 9.99337 15.4222 10.0206C14.9854 10.1234 14.2632 10.2011 13.5954 10.2011C12.9256 10.2263 12.2053 10.2011 11.7413 10.0983C11.6908 10.0983 11.6908 10.0458 11.7413 10.0458C12.1529 9.89046 12.8479 9.76237 13.5681 9.73712V9.60706C12.7954 9.63231 12.0228 9.8128 11.3801 10.0439C11.3025 10.0691 11.3025 10.1215 11.3801 10.1215C12.1005 10.3021 12.8479 10.3273 13.5934 10.3021C14.3137 10.2769 15.0863 10.2245 15.7814 10.0186C15.8843 9.99337 15.859 9.94097 15.8066 9.94097C15.0806 9.71968 14.3253 9.60706 13.5662 9.60706V9.73712H13.5681Z" fill="#1B1B1B" fill-opacity="0.55"/>
<path fill-rule="evenodd" clip-rule="evenodd" d="M21.2158 9.27343C21.0352 9.32583 20.7265 9.42874 20.5712 9.42874C20.4431 9.42874 19.7985 9.40349 19.3617 9.42874C18.7695 9.454 18.7171 9.53166 18.6919 9.48115C18.5637 9.2754 18.4609 8.96666 18.2551 8.78617C17.0455 8.99192 15.8612 8.81134 14.7799 8.42503V8.26971C14.8575 8.29496 14.908 8.29496 14.9604 8.29496C14.7799 8.03673 14.4712 7.96105 14.2906 7.67756C14.1877 7.59991 14.1625 7.44653 14.0596 7.36887C14.0848 7.65233 13.8538 7.85812 13.8286 8.08914C13.9839 8.14154 14.1897 8.14154 14.2654 8.11439C14.3683 8.08914 14.4964 8.11439 14.5489 8.19205C14.6265 8.21731 14.677 8.26971 14.7799 8.26971V8.42503C14.6517 8.39977 14.6246 8.37262 14.5216 8.32211C14.3936 8.37452 14.2906 8.34737 14.2382 8.29686C14.213 8.27168 13.9548 8.27168 13.8518 8.27168C13.5179 8.27168 13.1568 8.39977 12.9763 8.68326C12.8986 8.83857 12.9238 9.01717 13.0015 9.14723C13.054 9.22489 13.285 9.55881 13.4383 9.66172L13.2326 9.71412C12.9238 9.43072 12.6928 9.17446 12.7433 8.83857C12.8986 8.11826 13.5665 8.22117 13.747 7.91251C13.8751 7.62903 13.9276 6.80585 13.7723 6.57482C13.3355 6.39426 12.7938 6.16323 12.6908 5.64874C12.6657 5.52061 12.7161 5.36529 12.8462 5.34005C13.0772 5.28957 13.2326 5.41771 13.4131 5.49537C13.4908 5.44295 13.3355 5.26433 13.516 5.26433C13.747 5.26433 13.9024 5.72834 13.98 5.75358L13.9548 5.93414C13.7994 5.88366 13.2344 5.57302 13.182 5.54779C13.0791 5.49537 12.951 5.41965 12.8734 5.52255C12.7705 5.65068 12.8986 5.806 12.9763 5.93414C14.1858 7.19608 16.1933 5.85648 17.5076 6.75731C17.5329 6.67966 17.5076 6.65442 17.4552 6.62918C16.5543 5.78076 15.1119 6.21759 13.9548 5.93414L13.98 5.75358C15.4225 6.11469 17.327 5.52255 18.0726 7.1689C18.5618 7.86394 19.0763 8.97061 20.1324 8.99578C20.9828 9.02104 21.5478 8.68712 21.9594 8.06972C22.5262 7.04077 22.8602 5.85648 23.8639 5.16144C23.9668 5.10902 24.0192 5.16144 23.9668 5.18667C23.4776 5.67592 23.0407 6.32049 22.8078 6.86021C23.1941 8.32795 24.0425 8.01929 24.2503 7.99207C24.1979 7.45236 24.2503 5.85648 25.4093 5.47013C26.0946 4.94205 27.0149 4.83333 27.8031 5.18667C26.9022 6.03703 26.3606 7.24656 26.182 8.09498L25.1783 8.37846C25.256 8.22315 25.256 7.96681 25.2307 7.68339C25.1278 7.73387 25.0249 7.81153 24.7939 7.94163C24.691 7.96681 24.7686 7.81347 24.7686 7.81347C24.7686 7.76299 25.0268 7.65815 25.2326 7.53001C25.1549 6.93787 25.1045 6.16517 25.5937 5.67592C24.59 6.00985 24.8734 8.12213 24.9763 8.37846C24.6929 8.50655 24.3065 8.50655 24.3065 8.50655L24.2541 8.14549C23.8173 8.3008 23.0698 8.19789 22.7359 7.03883C22.3729 7.78046 22.0642 8.96477 21.2158 9.27343ZM36.9182 6.13411C36.8658 6.08169 36.8406 6.05645 36.79 6.05645C36.7648 6.03121 36.79 6.00403 36.8153 6.00403C36.8406 5.97879 36.893 6.00403 36.9182 6.05645C36.9435 6.08169 36.9435 6.13411 36.9182 6.13411Z" fill="#1B1B1B" fill-opacity="0.55"/>
<path fill-rule="evenodd" clip-rule="evenodd" d="M13.8788 11.1023L14.4185 11.7197C14.4709 11.7721 14.4709 11.8478 14.4437 11.875C14.5214 11.8498 14.6243 11.7197 14.6748 11.6692C14.6495 11.6945 14.5466 11.6945 14.5195 11.6439L13.9545 11.0246V10.9741L13.9797 10.9489C13.9797 10.9237 14.005 10.9237 14.005 10.9237L14.8029 11.2071C14.8805 11.2576 14.9058 11.31 14.9058 11.3353C14.931 11.2848 14.9834 11.1295 15.0087 11.0771C14.9834 11.1023 14.9058 11.1295 14.8534 11.1023L14.0554 10.8188C14.0302 10.8188 14.0302 10.8188 14.0302 10.7936V10.7412C14.0302 10.7159 14.0554 10.7159 14.0554 10.7159L14.8786 10.5878C14.9815 10.5626 15.034 10.6131 15.034 10.6383C15.034 10.5878 15.0087 10.4072 15.0087 10.3548C15.0087 10.3801 14.9563 10.4578 14.8534 10.4829L14.0554 10.6111C14.0302 10.6111 14.0302 10.5858 14.0302 10.5858C14.005 10.5606 14.005 10.5334 13.9778 10.5082V10.4829L14.6223 9.94327C14.7 9.89079 14.7776 9.89079 14.8029 9.91802C14.7524 9.86562 14.6476 9.73745 14.5971 9.68694C14.6223 9.71219 14.5971 9.78985 14.5446 9.86751L13.9273 10.382C13.9021 10.4072 13.9021 10.4072 13.9021 10.382C13.8768 10.382 13.8516 10.382 13.8244 10.3567C13.8244 10.3567 13.7992 10.3316 13.8244 10.3316L14.1078 9.53359C14.1272 9.47732 14.1777 9.43652 14.236 9.43068C14.1836 9.40543 14.005 9.32777 13.9525 9.32777C13.9778 9.32777 14.0302 9.43068 14.003 9.50834L13.7195 10.2811C13.7195 10.3063 13.6944 10.3063 13.6944 10.3063H13.6167L13.5914 10.2811L13.4361 9.45791C13.4361 9.355 13.4885 9.30259 13.4885 9.30259C13.4361 9.30259 13.2827 9.32777 13.205 9.355C13.2303 9.355 13.308 9.4074 13.3332 9.48308L13.4885 10.2811C13.4885 10.3063 13.4885 10.3063 13.4633 10.3335C13.438 10.3335 13.4128 10.3587 13.3856 10.3587H13.3604L12.7954 9.74131C12.743 9.66366 12.743 9.586 12.7702 9.586C12.7178 9.61125 12.5896 9.71417 12.5644 9.76657C12.5896 9.76657 12.6673 9.76657 12.7197 9.81708L13.2866 10.4344V10.4597L13.2342 10.5102H13.209L12.4363 10.2267C12.3586 10.2014 12.3081 10.1238 12.3334 10.0986C12.281 10.1762 12.2557 10.3296 12.2305 10.382C12.2557 10.3567 12.3334 10.3296 12.411 10.3567L13.1837 10.615V10.7431L12.3605 10.8985C12.2829 10.8985 12.2052 10.8479 12.2052 10.8208C12.2052 10.8985 12.2305 11.079 12.2577 11.1295C12.2577 11.1042 12.2829 11.0265 12.3858 11.0014L13.1837 10.8461C13.1837 10.8461 13.209 10.8461 13.209 10.8712C13.209 10.8965 13.209 10.8965 13.2342 10.9237V10.9489L12.5916 11.4615C12.5139 11.5391 12.4363 11.5139 12.4363 11.4867C12.4363 11.5644 12.5644 11.6925 12.5916 11.7177C12.5916 11.6925 12.5916 11.6148 12.644 11.5624L13.3138 11.0479C13.3138 11.0227 13.3138 11.0227 13.3391 11.0479L13.3915 11.0984C13.4167 11.0984 13.4167 11.0984 13.4167 11.1236L13.1332 11.8963C13.108 11.974 13.0303 12.0245 13.0051 11.9992C13.0575 12.0245 13.2109 12.1022 13.2885 12.1022C13.2361 12.1022 13.2109 12.0245 13.2361 11.9468L13.5196 11.1489C13.5196 11.1489 13.5196 11.1236 13.5448 11.1236C13.5701 11.1489 13.5953 11.1489 13.6225 11.1489C13.6225 11.1489 13.6477 11.1489 13.6477 11.1741L13.803 11.9721C13.803 12.0749 13.7506 12.1274 13.7254 12.1526C13.803 12.1526 13.9564 12.1022 14.0089 12.0749C13.9836 12.1002 13.9059 12.0245 13.9059 11.9721L13.7506 11.1489V11.1236C13.7759 11.1236 13.803 11.0984 13.8283 11.0984C13.8516 11.0751 13.8516 11.0751 13.8788 11.1023ZM36.5568 6.23506C36.5315 6.20982 36.5568 6.18458 36.5568 6.1574C36.582 6.07974 36.6073 6.07974 36.6073 6.00208C36.4791 5.89918 36.452 5.69339 36.5296 5.64097C36.6073 5.56331 36.8636 5.66621 36.8636 5.66621C37.0946 5.48565 37.1722 5.35752 37.3004 5.27986C37.481 5.27986 37.8401 5.61379 37.8401 5.81958C37.7877 5.89724 37.6595 6.02538 37.4537 6.28359C37.5314 6.46415 37.5314 6.59229 37.4013 6.69518C37.3761 6.69518 37.3237 6.69518 37.2732 6.64276C37.2984 6.90098 37.5819 7.05435 37.6848 7.26015C37.6848 7.67174 38.1216 8.18625 37.6324 8.52206C37.5295 8.57455 37.4266 8.65023 37.3761 8.75314C37.4537 9.16472 37.6071 9.60352 37.6848 10.0403L37.1956 10.0655C37.1451 10.2208 36.9897 10.5023 37.0403 10.6577C37.0403 10.6577 37.015 10.6325 37.0654 10.6577C37.1431 10.7606 37.1683 11.611 37.1431 11.6866C37.1431 11.7896 37.2208 11.7896 37.1683 11.9701C37.1159 11.9954 36.9121 12.1254 36.8849 12.2011C36.7568 12.3293 36.3956 12.3564 36.3956 12.304C36.3956 12.1759 36.652 12.0206 36.7044 11.8672C36.7548 11.2498 36.7044 10.6305 36.3705 10.1432C36.2423 10.0655 36.1394 10.2713 36.0617 10.3743C36.1899 10.7606 36.4229 11.1722 36.3956 11.609C36.3956 11.7371 36.551 11.9177 36.4733 12.0983L36.0617 12.304H34.5688C34.5183 12.2264 34.4135 12.1487 34.4406 12.0458H35.7783C35.7783 11.9934 35.9064 12.0206 36.0365 11.8148C36.0365 11.1974 35.3919 10.2966 35.4968 9.98786C35.6249 9.60155 35.8055 9.29288 36.0113 8.7784L36.1141 8.75314C35.8831 9.52586 35.5472 9.91218 35.5996 10.1432C35.6249 10.2713 35.6773 10.3743 35.755 10.5296L35.8074 10.6849C35.8326 10.7626 35.9103 10.9431 35.9628 10.9936C36.0404 10.9936 36.0908 10.9412 36.1432 10.9159C36.1432 10.813 36.0656 10.6849 36.0152 10.6072L35.8093 10.6849L35.7569 10.5296C35.9122 10.5296 36.0132 10.4267 35.8851 10.349C36.2462 10.1684 35.8074 10.2208 35.9355 10.1432C36.1414 10.0403 36.2443 9.65395 36.2694 9.42295C36.2694 9.37054 36.2947 9.34529 36.3471 9.34529C36.5024 9.75686 36.5024 10.2985 36.7587 10.6829V10.8111C36.7335 10.914 36.7588 11.0421 36.8112 11.1197C37.0422 11.145 37.0169 11.0945 36.9665 10.8111C36.916 10.8111 36.8112 10.7858 36.7606 10.8111V10.6829C36.7859 10.6577 36.8888 10.6829 36.916 10.6577C36.8383 10.5296 36.8383 10.4267 36.8383 10.2966C36.8383 10.2189 36.8907 10.0655 36.9412 10.3995C37.0189 10.4247 37.147 9.80737 37.1722 9.60155C36.683 9.70446 37.1722 9.13757 36.8112 9.11231L36.9917 8.80357C36.9917 8.70074 36.9141 8.62308 36.7859 8.67549L36.683 8.54732C36.6053 8.52206 36.5277 8.392 36.4267 8.31632C36.3491 8.39397 36.2209 8.54732 36.1957 8.65023C36.1705 8.67549 36.2481 8.70074 36.2734 8.67549C36.351 8.59783 36.4015 8.75314 36.5296 8.72592C36.582 8.67549 36.7354 8.64826 36.685 8.54542L36.7879 8.67351C36.685 8.72402 36.685 8.90459 36.685 9.03465C36.5044 9.36857 36.582 8.85408 36.3762 8.85408C36.2481 8.93174 36.1957 8.72592 36.12 8.75117L36.0171 8.77643C36.0171 8.59585 36.0423 8.39011 36.0171 8.18428C36.1724 7.30868 36.351 7.33392 36.3782 7.07765C36.3782 6.97475 36.7645 6.76896 36.7393 6.66606C36.7645 6.66606 36.817 6.74372 36.817 6.76896C36.7917 6.89709 36.5335 6.89709 36.5607 7.18055C36.716 6.89709 37.1528 6.92233 37.1781 6.5884C37.1004 6.38261 37.281 6.51074 37.281 6.30495C37.2305 6.25253 37.0751 6.09915 37.05 6.0215C37.0247 5.99626 37.1276 5.84094 36.7665 5.84094C36.7412 5.86618 36.716 6.0215 36.6636 6.09915C36.6383 6.12439 36.5859 6.17681 36.6112 6.20205C36.6112 6.22729 36.6636 6.25253 36.6636 6.35737C36.6383 6.46027 36.6636 6.51269 36.716 6.56316C36.9218 6.66606 37.0771 6.56316 36.8441 6.6913C36.8441 6.71654 36.8441 6.74178 36.8189 6.76896C36.8189 6.74372 36.7412 6.64082 36.716 6.61364C36.6908 6.61364 36.5607 6.53598 36.5879 6.43309C36.6092 6.3399 36.6092 6.28748 36.5568 6.23506ZM29.6317 5.2585C29.6569 5.43906 29.554 5.5672 29.554 5.74775C29.7346 6.18458 29.554 6.52045 29.6064 6.93204C29.4007 6.8039 29.3502 6.46803 29.2725 6.10886C29.2201 5.80017 29.2978 5.69727 29.323 5.3614L29.6317 5.2585ZM29.0919 5.38664C29.0667 5.92636 28.989 6.18458 29.3754 7.03494C28.3969 7.44653 27.599 7.72998 26.4419 8.06393C26.57 7.24073 27.3679 5.67009 28.0377 5.23132C28.6027 5.38664 29.0919 5.38664 29.0919 5.38664Z" fill="#1B1B1B" fill-opacity="0.55"/>
<path fill-rule="evenodd" clip-rule="evenodd" d="M26.5681 11.4364C26.3119 11.514 26.3119 11.6674 26.4652 11.8227C26.5681 11.9003 26.6711 12.0285 26.6711 12.0538H25.0227C25.0227 12.1314 25.1004 12.1819 25.1509 12.3119H34.2641C34.3165 12.1838 34.1612 12.0285 34.1088 11.8751C33.4641 11.6441 33.4641 11.0519 33.439 10.3821C33.439 10.3569 33.3865 10.2792 33.3865 10.1511C33.3088 10.0482 32.872 8.99202 33.0778 8.14362L33.2331 7.86019C33.3612 7.67964 33.2079 7.57674 33.3108 7.37095L35.2154 7.00983C35.2406 6.9846 35.2406 6.90694 35.1901 6.8817C35.1901 6.85646 35.2153 6.8817 35.1901 6.8817L33.3361 7.21563C33.4389 6.75162 33.0273 6.59825 33.2079 6.2119C33.4641 6.49535 34.1612 6.9846 34.5203 7.06031L34.7009 7.03507C34.2369 6.82928 33.4137 6.34003 32.9497 5.69741C32.8973 5.69741 32.8467 5.64499 32.7943 5.61975C32.7943 5.67023 32.9225 5.82555 32.8973 5.85078C32.8973 5.85078 32.5886 6.05658 32.0217 5.79837C31.8411 6.15948 29.8336 7.06031 29.8336 7.06031C29.9113 7.62722 30.1676 7.98641 30.451 8.29704C30.3734 8.24456 30.4763 8.34748 30.451 8.29704C30.8626 8.63096 31.3518 8.78628 31.8935 8.88919C31.9965 9.19785 32.3828 10.2016 32.408 10.3569C32.4604 10.5122 32.5362 10.5122 32.5362 10.5122C32.5886 10.5646 32.7672 10.8986 32.7672 11.0267L32.8196 11.5664C32.8449 11.6946 33.0002 11.5917 33.0254 11.7217L32.9478 12.0557H33.3341C33.1283 11.8751 33.2564 11.5664 33.0002 11.4383C32.9749 11.1296 32.9497 10.8986 32.8196 10.7685C32.7167 10.4598 32.3828 9.63665 32.1751 8.88919L32.3032 8.70862C31.7363 8.86394 31.2994 8.65811 30.785 8.3747C30.3986 8.19413 30.6296 8.34945 30.7598 8.27179C31.3771 8.5552 31.6877 8.47754 32.1498 8.42711C32.2022 8.50477 32.3051 8.58242 32.3051 8.71051L32.177 8.89108C32.3051 8.763 32.408 8.83868 32.4857 9.19982C32.5886 9.50848 32.6915 9.73949 32.7692 9.99771C32.872 10.2559 32.9497 10.5899 33.0273 10.7704C33.0273 10.7704 33.105 10.7704 33.1555 10.8733C33.3361 11.4402 33.3865 11.5179 33.3613 11.7741C33.4137 11.98 33.6952 11.7994 33.67 12.0576H26.9002C27.003 11.6461 26.772 11.2849 26.9002 10.8986C26.6419 10.4869 25.9993 10.1783 26.1022 9.6114C26.4109 9.17457 27.4146 8.73577 27.1836 8.22128C28.1096 7.7573 28.5737 8.53002 29.424 8.45236C29.7327 8.45236 30.0666 8.39988 30.3501 8.32419C29.989 8.04071 29.6803 7.60392 29.5017 7.21757C27.7 7.96305 25.9489 8.5552 24.019 8.94159L23.8637 8.88919C23.6831 8.91437 20.7496 9.58417 20.8525 9.71234C19.7459 9.78999 18.4587 10.2521 18.1752 10.4074C18.0472 10.4851 18.0199 10.5355 18.1752 10.588C19.3595 10.8966 20.3381 10.6656 22.1649 9.97057L22.0368 9.86765C21.9339 9.94531 20.4409 10.4598 19.8488 10.5375C19.2314 10.6151 18.6897 10.5899 18.4335 10.5122C18.3558 10.4869 18.3558 10.4869 18.4082 10.4618C19.5672 9.99771 21.8058 9.58614 22.1145 9.97246C22.295 10.0249 22.4231 10.1278 22.5261 10.2559C22.629 10.3841 22.8347 10.3336 22.99 10.3083C23.1959 10.2559 23.2211 10.0773 23.2211 9.89677L22.99 9.87152C22.8871 9.87152 22.4756 9.92392 22.4231 9.97443C22.2678 9.84627 22.1145 9.7162 21.9087 9.66577C22.3202 9.4852 22.99 9.33178 23.3512 9.30463C23.0173 9.53563 23.1706 9.81912 22.99 9.87152L23.2211 9.89677C23.2211 9.79386 23.2211 9.7162 23.2735 9.66577C23.5045 9.0988 24.4831 9.02115 24.9723 8.89306C24.9723 8.89306 24.7141 9.22697 24.5355 9.30463C24.485 10.1026 24.2015 10.7976 24.1491 11.5956C24.3801 11.5956 24.3801 11.8538 24.4325 12.0071C24.3549 12.1353 24.252 12.0071 24.1491 12.0324C23.788 11.8518 24.2267 11.5431 23.9433 11.2849C24.0986 10.6404 24.3296 9.99771 24.3296 9.32791C24.2267 9.32791 24.2015 9.43083 24.1491 9.50848C24.0714 10.153 23.8909 10.7433 23.7375 11.3354C23.788 11.3878 23.9181 11.4383 23.9181 11.5412C23.7122 11.6693 23.9181 11.9023 23.8404 12.0557H21.4971L21.266 12.3139H24.8189L24.8441 12.1857C24.3296 11.6188 24.5102 10.7957 24.7665 10.1783L25.3839 9.35514C25.8983 9.14931 26.207 8.53191 26.7487 8.32617C26.7487 8.60957 26.4148 8.71249 26.2342 8.86583C26.0284 9.30266 25.4363 9.35514 25.3586 9.84437C25.5897 10.1026 25.9255 10.2812 26.209 10.5142C26.4925 10.6947 26.4148 11.0811 26.6205 11.2616C26.6729 11.3082 26.6205 11.4111 26.5681 11.4364Z" fill="#1B1B1B" fill-opacity="0.55"/>
<path fill-rule="evenodd" clip-rule="evenodd" d="M30.5075 2.14208C30.4046 2.2974 30.1987 2.4003 30.3269 2.68181C30.0686 2.83713 30.1462 3.06816 30.2239 3.1963C30.0957 3.32443 30.018 3.58265 30.1987 3.73602C29.9928 3.96705 30.2511 4.17285 30.3269 4.25051C30.2239 4.48154 30.3269 4.6621 30.3269 4.6621C30.3016 4.81741 30.018 5.07368 29.9152 5.15134C29.7598 5.53769 29.8122 6.33563 29.8375 6.87536C30.558 6.51425 31.2805 6.18032 31.8457 5.69107C31.3563 5.35714 30.9697 4.5592 30.4298 4.60968C30.3773 4.04277 30.1462 3.03904 30.9445 2.01006C31.0474 1.95765 31.2009 1.93241 31.2786 1.88193C30.9445 1.83145 30.5056 2.03725 30.1968 1.85669C30.1987 1.86057 30.354 2.11684 30.5075 2.14208Z" fill="#1B1B1B" fill-opacity="0.55"/>
<path fill-rule="evenodd" clip-rule="evenodd" d="M32.234 1.8861C32.234 1.91134 32.3369 1.96376 32.3369 1.96376C32.3369 1.96376 32.4398 1.93852 32.4398 1.91328C32.4398 1.88804 32.4651 1.81038 32.4398 1.78514C32.4146 1.78514 32.3369 1.75991 32.2845 1.75991C32.2845 1.75602 32.234 1.86086 32.234 1.8861L32.1816 1.93852L31.8205 1.68031L31.8729 1.62789C31.8729 1.62789 32.0283 1.47257 32.1039 1.47257C32.1816 1.44733 32.5932 1.47257 32.6961 1.55023C32.7737 1.62789 32.8242 1.67836 32.9272 1.85892C33.2106 2.06471 33.6746 2.06471 33.9561 2.29575C33.9036 2.37341 34.0338 2.50154 33.9309 2.55396C33.8532 2.5792 33.6726 2.52872 33.6474 2.5792L33.6221 2.73452L33.5193 2.70928C33.5193 2.70928 33.5717 2.52872 33.5193 2.52872C33.4668 2.50348 33.364 2.45106 33.3135 2.4763C33.2882 2.50154 33.3135 2.52872 33.3387 2.5792C33.3387 2.62968 33.4668 2.65686 33.5445 2.62968L33.6474 2.65492L33.7756 2.68016C33.7232 2.80829 33.6979 2.86071 33.5173 2.80829C33.4649 2.93643 33.7483 3.03933 33.7756 3.09175C33.7503 3.14416 33.6979 3.19464 33.5173 3.09175C33.5173 3.09175 32.7699 3.81203 32.333 4.01782C31.8691 4.22362 32.3078 3.91492 32.3078 3.91492C32.5136 3.83727 33.4144 3.06456 33.4144 2.98885C33.3892 2.93643 33.3368 2.83353 33.3368 2.75781C33.2087 2.7054 32.9504 2.78305 32.8475 2.86071C32.8999 3.09175 33.3115 4.2508 33.0028 6.00199L32.9523 5.95151C33.2358 4.25274 32.7718 2.88789 32.7718 2.88789C32.5155 2.99079 32.335 2.91313 32.2049 2.94031C32.1525 3.99646 33.0028 4.14984 32.6942 5.53992C31.7933 5.38461 31.1507 4.27798 30.6343 4.38087C30.609 4.20032 30.4285 3.89163 30.609 3.78873C30.5586 3.63341 30.5061 3.42762 30.7372 3.29948C30.6595 3.09369 30.6343 2.91313 30.8653 2.75976C30.8129 2.63162 30.8401 2.34817 31.1216 2.29575C31.1468 2.06471 31.2497 1.88416 31.4555 1.8065C31.2244 1.7036 31.172 1.47257 31.172 1.47257C31.3779 1.60071 31.5584 1.67836 31.8671 1.62789L32.234 1.8861ZM23.48 21.1415L23.4548 19.699C23.4548 19.2621 23.1714 18.7982 22.785 18.5399C22.7073 18.5147 22.5792 18.4623 22.4763 18.4623C22.5792 18.4623 22.7073 18.4623 22.8374 18.4099C23.2238 18.2293 23.6878 17.7401 23.6878 16.8917C23.6878 16.247 23.4295 15.7598 22.9675 15.4239C22.5307 15.1152 22.0414 15.0376 21.525 15.0376H17.5606V16.0665H18.4614V21.1376H17.5606V22.1413H20.3931V21.1376H19.4923V18.9011H21.4493C22.1191 18.9262 22.3754 19.365 22.3754 19.7242L22.4531 22.1433H24.3828V21.1395L23.48 21.1415ZM21.6531 17.9225H19.4904V16.0684H21.525C21.756 16.0684 22.0143 16.0684 22.2201 16.1461C22.4782 16.2743 22.7093 16.5577 22.7093 16.9945C22.7093 17.5381 22.2201 17.9225 21.6531 17.9225ZM17.1995 24.6672C18.1255 24.6672 18.5371 25.1817 18.5371 25.8262C18.5371 26.4708 18.1003 26.9581 17.1218 26.9581H16.452V28.7346H15.8599V24.6672H17.1995ZM16.452 26.4436H17.1742C17.611 26.4436 17.9198 26.2107 17.9198 25.799C17.9198 25.4903 17.7392 25.1817 17.1995 25.1817H16.452V26.4436ZM23.1461 28.7346H22.5016L21.9871 27.525H20.2107L19.7214 28.7346H19.0768L20.8785 24.6419H21.2901L23.1461 28.7346ZM20.4437 26.9853H21.756L21.061 25.3894L20.4437 26.9853ZM29.9159 28.7346H29.3238V24.6672H29.9159V28.7346ZM34.1638 25.5427C33.7775 25.2341 33.4164 25.1312 33.1077 25.1312C32.7213 25.1312 32.4127 25.3117 32.4127 25.5952C32.4127 26.3931 34.3172 26.3679 34.3172 27.6803C34.3172 28.2977 33.8027 28.7617 33.0805 28.7617C32.6165 28.7617 32.2049 28.6588 31.8457 28.4025V27.6551C32.1797 28.0414 32.5932 28.2472 33.03 28.2472C33.5193 28.2472 33.7503 27.9637 33.7503 27.7327C33.7503 26.9096 31.8186 26.8047 31.8186 25.7C31.8186 25.0302 32.3602 24.6187 33.1562 24.6187C33.5173 24.6187 33.826 24.6963 34.16 24.9021L34.1638 25.5427ZM27.4192 28.2452C27.3416 28.1424 27.2639 28.0395 27.1882 27.9113C26.8796 27.3968 26.6213 27.0358 26.2349 26.8047C26.699 26.6241 26.9552 26.265 26.9552 25.801C26.9552 25.1059 26.4136 24.6691 25.54 24.6691H24.4838V28.7364H25.1012V26.96H25.3594C25.668 26.96 25.9263 27.0629 26.466 27.888L27.0329 28.7364H27.7279L27.4192 28.2452ZM25.4894 26.4436H25.1031V25.1564H25.4894C26.0816 25.1564 26.3126 25.3874 26.3126 25.7738C26.3378 26.1096 26.1573 26.4436 25.4894 26.4436Z" fill="#1B1B1B" fill-opacity="0.55"/>
</svg>
