<svg width="102" height="18" viewBox="0 0 102 18" fill="none" xmlns="http://www.w3.org/2000/svg">
<mask id="mask0_15_969" style="mask-type:luminance" maskUnits="userSpaceOnUse" x="1" y="0" width="100" height="18">
<path d="M100.816 0.619385H1.04102V17.3807H100.816V0.619385Z" fill="white"/>
</mask>
<g mask="url(#mask0_15_969)">
<mask id="mask1_15_969" style="mask-type:luminance" maskUnits="userSpaceOnUse" x="1" y="0" width="100" height="18">
<path d="M100.816 0.619385H1.04102V17.3807H100.816V0.619385Z" fill="white"/>
</mask>
<g mask="url(#mask1_15_969)">
<path d="M98.4728 0.758242L96.1297 0.750319V3.26934L98.4728 3.25683V17.246H100.816V0.758242H98.4728ZM93.2225 4.76591C93.2225 2.56589 92.1879 0.619385 89.7506 0.619385C87.7962 0.619385 86.2342 2.23855 86.2342 4.20965V5.50607H88.5772V4.16045C88.5772 3.39611 89.0351 2.9787 89.7265 2.9787C90.8753 2.9787 90.8753 3.97239 90.8753 4.80678C90.8753 5.71039 90.8753 6.17242 90.4624 6.98221L86.2342 15.0172V17.2418H93.2225V14.8783H88.9942L92.4415 8.18438C93.1774 6.77747 93.2225 6.36048 93.2225 4.76591ZM71.1696 8.12309H69.8365V2.98287H71.0554C72.7809 2.98287 73.0548 3.88649 73.0548 5.55486C73.0548 7.19487 72.8055 8.12309 71.1696 8.12309ZM75.4021 5.59989C75.4021 2.40243 74.0444 0.758242 71.2639 0.758242H67.4935V17.246H69.8365V10.2084H71.2393L73.423 17.2501H75.905L73.378 9.72182C74.8704 8.88743 75.4021 7.49719 75.4021 5.59989ZM56.8903 17.246H63.879V14.8825H59.2375V10.045H63.2819V7.82035H59.2375V2.98287H63.879V0.758242H56.8903V17.246ZM49.0188 12.2692H48.9738L47.1132 0.758242H44.6313L47.9638 17.246H50.0329L53.3901 0.758242H50.9082L49.0188 12.2692ZM34.6331 17.246H41.6214V14.8825H36.9762V10.045H41.0206V7.82035H36.9762V2.98287H41.6177V0.758242H34.6331V17.246ZM26.6186 8.12309H25.2855V2.98287H26.504C28.2299 2.98287 28.5038 3.88649 28.5038 5.55486C28.4997 7.19487 28.2503 8.12309 26.6186 8.12309ZM30.8469 5.59989C30.8469 2.40243 29.4892 0.758242 26.7087 0.758242H22.9383V17.246H25.2813V10.2084H26.6841L28.8674 17.2501H31.3498L28.8224 9.72182C30.3194 8.88743 30.8469 7.49719 30.8469 5.59989ZM16.8252 13.3571C16.8252 14.4938 16.0888 15.0255 15.2386 15.0255C14.3879 15.0255 13.652 14.4938 13.652 13.3571V4.64707C13.652 3.51036 14.3879 2.9787 15.2386 2.9787C16.0888 2.9787 16.8252 3.51036 16.8252 4.64707V13.3571ZM15.2386 0.619385C13.3288 0.619385 11.3089 1.96042 11.3089 4.64707V13.353C11.3089 16.0396 13.333 17.3806 15.2386 17.3806C17.148 17.3806 19.1683 16.0396 19.1683 13.353V4.64707C19.1683 1.96042 17.148 0.619385 15.2386 0.619385ZM1.04102 17.246H3.38407V10.2084H7.42844V7.98381H3.38407V2.98287H8.02515V0.758242H1.04102V17.246Z" fill="#1B1B1B" fill-opacity="0.55"/>
</g>
</g>
</svg>
